<svg xmlns="http://www.w3.org/2000/svg" style="color:#FFFFFF" viewBox="0 -2 67 36" fill="none">
  <path d="M55.5557 0C61.6429 7.93888e-05 66.6141 4.78049 66.9189 10.792L66.9336 11.3779V13.6885H55.5557V9.06641H61.9053C60.9613 6.47375 58.4747 4.62213 55.5557 4.62207C51.8247 4.62207 48.7998 7.64694 48.7998 11.3779C48.7999 15.1088 51.8247 18.1338 55.5557 18.1338V22.7559C49.2719 22.7559 44.1778 17.6616 44.1777 11.3779C44.1777 5.09416 49.2719 0 55.5557 0Z" fill="currentColor"/>
  <path d="M29.8668 0C36.1505 8.19484e-05 41.2448 5.09421 41.2448 11.3779C41.2447 16.8698 37.353 21.4517 32.1774 22.5195V32H27.5553V22.5195C22.3799 21.4515 18.489 16.8696 18.4889 11.3779C18.4889 5.09416 23.583 0 29.8668 0ZM29.8668 4.62207C26.1358 4.62207 23.111 7.64694 23.111 11.3779C23.111 15.1088 26.1359 18.1338 29.8668 18.1338C33.5977 18.1337 36.6226 15.1088 36.6227 11.3779C36.6227 7.64699 33.5977 4.62215 29.8668 4.62207Z" fill="currentColor"/>
  <path d="M17.0667 0V4.62222H13.8667C8.7611 4.62222 4.62222 8.7611 4.62222 13.8667V22.7556H0V13.8667C0 6.20832 6.20831 0 13.8667 0L17.0667 0Z" fill="currentColor"/>
</svg>
